HIERARCHY
ROOT hip
{
  OFFSET 0 0 0
  CHANNELS 6 Xposition Yposition Zposition Zrotation Yrotation Xrotation
  JOINT abdomen
  {
    OFFSET 0 20.6881 -0.73152
    CHANNELS 3 Zrotation Xrotation Yrotation
    JOINT chest
    {
      OFFSET 0 11.7043 -0.48768
      CHANNELS 3 Zrotation Xrotation Yrotation
      JOINT neck
      {
        OFFSET 0 22.1894 -2.19456
        CHANNELS 3 Zrotation Xrotation Yrotation
        JOINT head
        {
          OFFSET -0.24384 7.07133 1.2192
          CHANNELS 3 Zrotation Xrotation Yrotation
          JOINT leftEye
          {
            OFFSET 4.14528 8.04674 8.04672
            CHANNELS 3 Zrotation Xrotation Yrotation
            End Site
            {
              OFFSET 1 0 0
            }
          }
          JOINT rightEye
          {
            OFFSET -3.6576 8.04674 8.04672
            CHANNELS 3 Zrotation Xrotation Yrotation
            End Site
            {
              OFFSET 1 0 0
            }
          }
        }
      }
      JOINT rCollar
      {
        OFFSET -2.68224 19.2634 -4.8768
        CHANNELS 3 Zrotation Xrotation Yrotation
        JOINT rShldr
        {
          OFFSET -8.77824 -1.95073 1.46304
          CHANNELS 3 Zrotation Xrotation Yrotation
          JOINT rForeArm
          {
            OFFSET -28.1742 -1.7115 0.48768
            CHANNELS 3 Zrotation Xrotation Yrotation
            JOINT rHand
            {
              OFFSET -22.5879 0.773209 7.07136
              CHANNELS 3 Zrotation Xrotation Yrotation
              JOINT rThumb1
              {
                OFFSET -1.2192 -0.487915 3.41376
                CHANNELS 3 Zrotation Xrotation Yrotation
                JOINT rThumb2
                {
                  OFFSET -3.37035 -0.52449 3.41376
                  CHANNELS 3 Zrotation Xrotation Yrotation
                  End Site
                  {
                    OFFSET -1.78271 -1.18214 1.43049
                  }
                }
              }
              JOINT rIndex1
              {
                OFFSET -7.75947 0.938293 5.60832
                CHANNELS 3 Zrotation Xrotation Yrotation
                JOINT rIndex2
                {
                  OFFSET -2.54057 -0.884171 1.56538
                  CHANNELS 3 Zrotation Xrotation Yrotation
                  End Site
                  {
                    OFFSET -1.62519 -0.234802 1.16502
                  }
                }
              }
              JOINT rMid1
              {
                OFFSET -8.24714 1.18213 3.41376
                CHANNELS 3 Zrotation Xrotation Yrotation
                JOINT rMid2
                {
                  OFFSET -3.10165 -0.590103 1.0647
                  CHANNELS 3 Zrotation Xrotation Yrotation
                  End Site
                  {
                    OFFSET -2.48547 -0.328903 0.83742
                  }
                }
              }
              JOINT rRing1
              {
                OFFSET -8.82822 0.546677 1.51678
                CHANNELS 3 Zrotation Xrotation Yrotation
                JOINT rRing2
                {
                  OFFSET -2.60934 -0.819778 -0.0198488
                  CHANNELS 3 Zrotation Xrotation Yrotation
                  End Site
                  {
                    OFFSET -2.33842 -0.294052 0.168128
                  }
                }
              }
              JOINT rPinky1
              {
                OFFSET -8.27202 -0.0477905 -0.4584
                CHANNELS 3 Zrotation Xrotation Yrotation
                JOINT rPinky2
                {
                  OFFSET -1.82734 -0.647385 -0.700984
                  CHANNELS 3 Zrotation Xrotation Yrotation
                  End Site
                  {
                    OFFSET -1.69225 -0.51767 -0.607171
                  }
                }
              }
            }
          }
        }
      }
      JOINT lCollar
      {
        OFFSET 2.68224 19.2634 -4.8768
        CHANNELS 3 Zrotation Xrotation Yrotation
        JOINT lShldr
        {
          OFFSET 8.77824 -1.95073 1.46304
          CHANNELS 3 Zrotation Xrotation Yrotation
          JOINT lForeArm
          {
            OFFSET 28.1742 -1.7115 0.48768
            CHANNELS 3 Zrotation Xrotation Yrotation
            JOINT lHand
            {
              OFFSET 22.5879 0.773209 7.07136
              CHANNELS 3 Zrotation Xrotation Yrotation
              JOINT lThumb1
              {
                OFFSET 1.2192 -0.487915 3.41376
                CHANNELS 3 Zrotation Xrotation Yrotation
                JOINT lThumb2
                {
                  OFFSET 3.37035 -0.52449 3.41376
                  CHANNELS 3 Zrotation Xrotation Yrotation
                  End Site
                  {
                    OFFSET 1.78271 -1.18214 1.43049
                  }
                }
              }
              JOINT lIndex1
              {
                OFFSET 7.75947 0.938293 5.60832
                CHANNELS 3 Zrotation Xrotation Yrotation
                JOINT lIndex2
                {
                  OFFSET 2.54057 -0.884171 1.56538
                  CHANNELS 3 Zrotation Xrotation Yrotation
                  End Site
                  {
                    OFFSET 1.62519 -0.234802 1.16502
                  }
                }
              }
              JOINT lMid1
              {
                OFFSET 8.24714 1.18213 3.41376
                CHANNELS 3 Zrotation Xrotation Yrotation
                JOINT lMid2
                {
                  OFFSET 3.10165 -0.590103 1.0647
                  CHANNELS 3 Zrotation Xrotation Yrotation
                  End Site
                  {
                    OFFSET 2.48547 -0.328903 0.83742
                  }
                }
              }
              JOINT lRing1
              {
                OFFSET 8.82822 0.546677 1.51678
                CHANNELS 3 Zrotation Xrotation Yrotation
                JOINT lRing2
                {
                  OFFSET 2.60934 -0.819778 -0.0198488
                  CHANNELS 3 Zrotation Xrotation Yrotation
                  End Site
                  {
                    OFFSET 2.33842 -0.294052 0.168128
                  }
                }
              }
              JOINT lPinky1
              {
                OFFSET 8.27202 -0.0477905 -0.4584
                CHANNELS 3 Zrotation Xrotation Yrotation
                JOINT lPinky2
                {
                  OFFSET 1.82734 -0.647385 -0.700984
                  CHANNELS 3 Zrotation Xrotation Yrotation
                  End Site
                  {
                    OFFSET 1.69225 -0.51767 -0.607171
                  }
                }
              }
            }
          }
        }
      }
    }
  }
  JOINT rButtock
  {
    OFFSET -8.77824 4.35084 1.2192
    CHANNELS 3 Zrotation Xrotation Yrotation
    JOINT rThigh
    {
      OFFSET 0 -1.70687 -2.19456
      CHANNELS 3 Zrotation Xrotation Yrotation
      JOINT rShin
      {
        OFFSET 0 -36.8199 0.73152
        CHANNELS 3 Zrotation Xrotation Yrotation
        JOINT rFoot
        {
          OFFSET 0.73152 -45.1104 -5.12064
          CHANNELS 3 Zrotation Xrotation Yrotation
          End Site
          {
            OFFSET -1.1221 -3.69964 12.103
          }
        }
      }
    }
  }
  JOINT lButtock
  {
    OFFSET 8.77824 4.35084 1.2192
    CHANNELS 3 Zrotation Xrotation Yrotation
    JOINT lThigh
    {
      OFFSET 0 -1.70687 -2.19456
      CHANNELS 3 Zrotation Xrotation Yrotation
      JOINT lShin
      {
        OFFSET 0 -36.8199 0.73152
        CHANNELS 3 Zrotation Xrotation Yrotation
        JOINT lFoot
        {
          OFFSET -0.73152 -45.1104 -5.12064
          CHANNELS 3 Zrotation Xrotation Yrotation
          End Site
          {
            OFFSET 1.1221 -3.69964 12.103
          }
        }
      }
    }
  }
}
MOTION
Frames:	8
Frame Time:	0.00833333
261.738 85.1731 8.55656 0.0 0.0 0.0 0.512933 -0.00341815 0.0146932 0.141687 -0.00540199 0.0245504 -1.40723e-14 0.0 9.93923e-17 -4.20057e-14 3.18055e-15 2.98177e-16 -0.0 0.0 0.0 -0.0 0.0 0.0 -7.10799e-15 2.21303e-17 1.98785e-16 -1.44e-13 4.65902e-16 1.39149e-15 -2.52129e-12 7.72278e-13 3.81667e-14 -2.88945e-11 -6.68066e-13 1.52667e-13 -6.81522e-11 2.25327e-13 4.32555e-13 -1.177e-10 3.84847e-13 7.27552e-13 -6.81493e-11 2.27012e-13 4.19833e-13 7.73091 5.47488 0.417314 -6.81521e-11 2.25819e-13 4.29375e-13 2.90554 0.965183 0.102902 -6.81444e-11 2.26217e-13 4.26194e-13 10.2786 0.731801 0.0259123 -6.81535e-11 2.26615e-13 4.29375e-13 2.22167 -0.733487 -0.20892 -7.20498e-15 2.11597e-17 -9.93923e-17 -1.48294e-13 8.51047e-16 -5.96354e-16 -2.53083e-12 -7.33515e-13 4.77083e-14 -2.88918e-11 8.59048e-13 1.39944e-13 -6.81638e-11 2.68133e-13 4.23014e-13 -1.17699e-10 4.6118e-13 7.45045e-13 -6.817e-11 2.6995e-13 4.32555e-13 -7.73091 5.47488 -0.417314 -6.81646e-11 2.68459e-13 4.26194e-13 -2.90554 0.965183 -0.102902 -6.8173e-11 2.68558e-13 4.26989e-13 -10.2786 0.731801 -0.0259123 -6.81613e-11 2.69154e-13 4.16653e-13 -2.22167 -0.733487 0.20892 -2.03217e-16 0.0 -3.88251e-19 0.859991 -4.41147 -0.0729699 -0.00213112 2.43942 -0.0112522 -0.474425 1.97258 0.0938354 2.03217e-16 0.0 3.88251e-19 -0.0777088 -2.42095 0.0232547 0.00766794 -1.16604 0.0660008 0.465797 3.58744 -0.125219
253.821 83.3559 1.32644 -163.918 -84.4841 162.776 -0.0126041 1.7376 1.17679 1.984 0.323305 0.325184 1.53749 2.02764 0.87499 -2.5107 -4.34222 1.13686 -0.0 0.0 0.0 -0.0 0.0 0.0 -6.21709e-15 -1.62192e-12 4.93638e-14 20.8147 9.42434 0.899062 -4.39017 -2.02982 6.8186 0.047864 -4.85623 -0.673674 -2.29419e-10 1.42579e-10 8.22733e-10 -4.03935e-10 2.46674e-10 1.41933e-09 -2.29417e-10 1.42579e-10 8.22723e-10 7.73091 5.47488 0.417314 -2.29419e-10 1.42578e-10 8.2273e-10 2.90554 0.965183 0.102902 -2.2941e-10 1.42579e-10 8.22727e-10 10.2786 0.731801 0.0259123 -2.29421e-10 1.42579e-10 8.22731e-10 2.22167 -0.733487 -0.20892 -6.28073e-15 -1.62192e-12 4.91394e-14 -23.7456 8.37633 -1.94598 3.63183 -1.54838 -5.77829 -0.0153868 2.75211 -0.385173 3.19533e-10 -2.359e-11 -8.21302e-10 5.4481e-10 -4.05079e-11 -1.42279e-09 3.19529e-10 -2.35865e-11 -8.2129e-10 -7.73091 5.47488 -0.417314 3.19533e-10 -2.3588e-11 -8.21299e-10 -2.90554 0.965183 -0.102902 3.19525e-10 -2.35877e-11 -8.21298e-10 -10.2786 0.731801 -0.0259123 3.19534e-10 -2.35879e-11 -8.21307e-10 -2.22167 -0.733487 0.20892 -2.03217e-16 0.0 -3.88251e-19 3.57249 -6.82723 3.88308 0.0892285 11.7328 0.252417 -2.33479 -8.8715 -8.0111 2.03217e-16 0.0 3.88251e-19 -1.27639 -6.17484 -5.25488 -0.079081 9.91308 -0.182506 1.73294 -5.03039 7.10499
253.818 83.3586 1.3518 -164.263 -84.598 163.11 -0.643706 3.57827 2.41114 3.93559 0.672338 0.643489 3.0952 4.16972 1.80228 -4.98385 -8.93557 2.35635 -0.0 0.0 0.0 -0.0 0.0 0.0 -5.65114e-15 -3.56684e-12 1.07617e-13 42.468 19.385 1.93966 -8.51035 -4.08014 14.0549 -0.0274564 -9.9907 -1.40254 -4.31425e-10 2.87764e-10 1.77783e-09 -7.61892e-10 4.97808e-10 3.06693e-09 -4.31423e-10 2.87763e-10 1.77782e-09 7.73091 5.47488 0.417314 -4.31424e-10 2.87763e-10 1.77783e-09 2.90554 0.965183 0.102902 -4.31414e-10 2.87763e-10 1.77782e-09 10.2786 0.731801 0.0259123 -4.31428e-10 2.87765e-10 1.77783e-09 2.22167 -0.733487 -0.20892 -5.67683e-15 -3.56685e-12 1.07474e-13 -48.2111 17.2003 -4.14601 7.13446 -3.13338 -11.9018 0.00876408 5.6623 -0.795494 7.48405e-10 -5.09789e-11 -1.77393e-09 1.27729e-09 -8.75239e-11 -3.07297e-09 7.48403e-10 -5.09736e-11 -1.77392e-09 -7.73091 5.47488 -0.417314 7.48406e-10 -5.09751e-11 -1.77393e-09 -2.90554 0.965183 -0.102902 7.48398e-10 -5.09744e-11 -1.77393e-09 -10.2786 0.731801 -0.0259123 7.48404e-10 -5.09755e-11 -1.77394e-09 -2.22167 -0.733487 0.20892 -2.03217e-16 0.0 -3.88251e-19 6.804 -9.32253 8.10597 0.0861574 21.5575 0.558962 -7.76342 -19.6285 -17.4195 2.03217e-16 0.0 3.88251e-19 -3.29953 -10.013 -10.9371 -0.0597697 21.6252 -0.472959 5.47057 -13.7519 15.1324
253.815 83.3604 1.3483 -163.499 -84.6468 162.334 -1.27615 5.21097 3.51392 5.65828 0.980608 0.926572 4.42585 6.07724 2.63816 -7.00392 -13.0059 3.49043 -0.0 0.0 0.0 -0.0 0.0 0.0 -4.4353e-15 -4.8658e-12 1.47694e-13 61.4552 28.2432 3.02068 -11.7492 -5.74522 20.5508 -0.208596 -14.5605 -2.08062 -5.51953e-10 4.27285e-10 2.46733e-09 -9.76404e-10 7.39253e-10 4.25655e-09 -5.51951e-10 4.27283e-10 2.46733e-09 7.73091 5.47488 0.417314 -5.51952e-10 4.27283e-10 2.46733e-09 2.90554 0.965183 0.102902 -5.51941e-10 4.27283e-10 2.46733e-09 10.2786 0.731801 0.0259123 -5.51957e-10 4.27285e-10 2.46734e-09 2.22167 -0.733487 -0.20892 -4.43224e-15 -4.86581e-12 1.47617e-13 -69.3834 25.0068 -6.37542 9.97205 -4.45651 -17.3827 0.065828 8.25483 -1.16627 1.09493e-09 -7.13063e-11 -2.46475e-09 1.86983e-09 -1.22446e-10 -4.26987e-09 1.09493e-09 -7.12995e-11 -2.46474e-09 -7.73091 5.47488 -0.417314 1.09493e-09 -7.1301e-11 -2.46475e-09 -2.90554 0.965183 -0.102902 1.09492e-09 -7.13001e-11 -2.46475e-09 -10.2786 0.731801 -0.0259123 1.09492e-09 -7.13019e-11 -2.46475e-09 -2.22167 -0.733487 0.20892 -2.03217e-16 0.0 -3.88251e-19 10.0077 -11.4584 11.9537 -0.0198387 30.3171 0.884941 -15.9349 -27.9218 -27.3282 2.03217e-16 0.0 3.88251e-19 -5.76717 -13.236 -16.1599 0.0764842 32.069 -0.792209 10.9805 -20.7524 23.0556
253.793 83.3603 1.31806 -162.006 -84.6026 160.828 -1.76064 6.33209 4.27534 6.81615 1.18708 1.12148 5.32036 7.40373 3.23298 -8.26681 -15.7881 4.33492 -0.0 0.0 0.0 -0.0 0.0 0.0 -1.5947e-15 -4.54984e-12 1.4233e-13 74.5172 34.3742 3.89359 -13.7763 -6.77539 25.1052 -0.401576 -17.7264 -2.57481 -4.68788e-10 5.52644e-10 2.49285e-09 -8.32302e-10 9.56479e-10 4.30119e-09 -4.68786e-10 5.5264e-10 2.49285e-09 7.73091 5.47488 0.417314 -4.68786e-10 5.52641e-10 2.49285e-09 2.90554 0.965183 0.102902 -4.68776e-10 5.52641e-10 2.49285e-09 10.2786 0.731801 0.0259123 -4.68792e-10 5.52643e-10 2.49286e-09 2.22167 -0.733487 -0.20892 -1.58593e-15 -4.54985e-12 1.4228e-13 -83.6795 30.3853 -8.17001 11.7938 -5.30505 -21.2115 0.12562 10.0546 -1.42792 1.23558e-09 -7.39797e-11 -2.50103e-09 2.11254e-09 -1.27133e-10 -4.33358e-09 1.23558e-09 -7.39725e-11 -2.50102e-09 -7.73091 5.47488 -0.417314 1.23558e-09 -7.3974e-11 -2.50103e-09 -2.90554 0.965183 -0.102902 1.23557e-09 -7.39731e-11 -2.50103e-09 -10.2786 0.731801 -0.0259123 1.23557e-09 -7.39753e-11 -2.50103e-09 -2.22167 -0.733487 0.20892 -2.03217e-16 0.0 -3.88251e-19 12.4305 -12.8696 14.7317 -0.167653 36.4163 1.16353 -23.683 -32.5886 -35.3961 2.03217e-16 0.0 3.88251e-19 -7.86824 -15.3306 -19.9242 0.261947 39.3442 -1.07635 16.0775 -24.9368 29.1733
253.757 83.3606 1.31585 -162.073 -84.5848 160.87 -1.97822 6.74437 4.54644 7.19048 1.24618 1.19186 5.6583 7.92236 3.47974 -8.64102 -16.7849 4.71697 -0.0 0.0 0.0 -0.0 0.0 0.0 4.23023e-15 -1.5034e-12 6.00237e-14 79.7173 36.7069 4.20107 -14.5198 -7.14269 26.891 -0.491046 -18.9309 -2.76957 -3.61147e-11 6.96003e-10 1.45637e-09 -7.34367e-11 1.20541e-09 2.51475e-09 -3.61121e-11 6.96e-10 1.45637e-09 7.73091 5.47488 0.417314 -3.61129e-11 6.96e-10 1.45637e-09 2.90554 0.965183 0.102902 -3.61035e-11 6.96001e-10 1.45637e-09 10.2786 0.731801 0.0259123 -3.61177e-11 6.96003e-10 1.45638e-09 2.22167 -0.733487 -0.20892 4.20652e-15 -1.50309e-12 5.99386e-14 -89.0799 32.4631 -8.95021 12.4647 -5.6116 -22.695 0.153126 10.7432 -1.52917 1.09517e-09 -5.13413e-11 -1.49702e-09 1.87902e-09 -8.85593e-11 -2.59662e-09 1.09517e-09 -5.13353e-11 -1.497e-09 -7.73091 5.47488 -0.417314 1.09517e-09 -5.13368e-11 -1.49701e-09 -2.90554 0.965183 -0.102902 1.09517e-09 -5.13363e-11 -1.49701e-09 -10.2786 0.731801 -0.0259123 1.09517e-09 -5.13386e-11 -1.49702e-09 -2.22167 -0.733487 0.20892 -2.03217e-16 0.0 -3.88251e-19 13.4513 -13.3745 15.9598 -0.245939 38.7916 1.295 -27.3454 -34.2095 -38.951 2.03217e-16 0.0 3.88251e-19 -8.81182 -16.1272 -21.4684 0.361287 42.1852 -1.20722 18.3335 -26.3088 31.7356
253.731 83.3572 1.32704 -162.367 -84.6205 161.161 -1.98979 6.65187 4.4651 7.00562 1.20027 1.17332 5.61301 7.86499 3.47538 -8.42454 -16.5106 4.75239 -0.0 0.0 0.0 -0.0 0.0 0.0 1.2153e-14 3.47104e-12 -7.66066e-14 79.4186 36.3339 4.01948 -14.4356 -7.10061 26.6864 -0.477408 -18.736 -2.73809 6.43144e-10 8.50418e-10 -3.32366e-10 1.11918e-09 1.47386e-09 -5.68755e-10 6.43147e-10 8.50417e-10 -3.3237e-10 7.73091 5.47488 0.417314 6.43145e-10 8.50417e-10 -3.32368e-10 2.90554 0.965183 0.102902 6.43153e-10 8.50417e-10 -3.32369e-10 10.2786 0.731801 0.0259123 6.43142e-10 8.50419e-10 -3.32362e-10 2.22167 -0.733487 -0.20892 1.20699e-14 3.47188e-12 -7.67713e-14 -88.3304 32.2129 -8.87128 12.374 -5.56632 -22.4963 0.14914 10.6384 -1.51376 7.53676e-10 -1.06514e-11 2.44167e-10 1.30471e-09 -1.91292e-11 4.16335e-10 7.53674e-10 -1.06478e-11 2.44173e-10 -7.73091 5.47488 -0.417314 7.53675e-10 -1.06491e-11 2.44165e-10 -2.90554 0.965183 -0.102902 7.53668e-10 -1.06494e-11 2.44168e-10 -10.2786 0.731801 -0.0259123 7.53673e-10 -1.06515e-11 2.44168e-10 -2.22167 -0.733487 0.20892 -2.03217e-16 0.0 -3.88251e-19 13.3966 -13.2648 16.06 -0.235588 38.5076 1.29245 -27.2681 -34.2979 -38.8017 2.03217e-16 0.0 3.88251e-19 -8.77706 -16.0779 -21.3776 0.349252 41.8598 -1.18957 18.0384 -26.0229 31.4934
253.744 83.3499 1.31053 -161.697 -84.7722 160.529 -1.90777 6.35478 4.24902 6.59071 1.12023 1.12083 5.42275 7.57438 3.3734 -7.98048 -15.7222 4.65239 -0.0 0.0 0.0 -0.0 0.0 0.0 1.97795e-14 8.4653e-12 -2.13647e-13 76.901 34.8837 3.66451 -14.0181 -6.89299 25.6818 -0.423343 -17.9842 -2.61687 1.3181e-09 9.48731e-10 -2.21014e-09 2.30497e-09 1.64514e-09 -3.80606e-09 1.3181e-09 9.48732e-10 -2.21015e-09 7.73091 5.47488 0.417314 1.3181e-09 9.48731e-10 -2.21015e-09 2.90554 0.965183 0.102902 1.3181e-09 9.48731e-10 -2.21015e-09 10.2786 0.731801 0.0259123 1.3181e-09 9.48733e-10 -2.21014e-09 2.22167 -0.733487 -0.20892 1.96356e-14 8.46624e-12 -2.13896e-13 -85.129 31.0204 -8.4406 11.9812 -5.38214 -21.6314 0.132822 10.2202 -1.45231 3.20271e-10 3.63049e-11 2.08191e-09 5.724e-10 6.1152e-11 3.59695e-09 3.20267e-10 3.6306e-11 2.08191e-09 -7.73091 5.47488 -0.417314 3.20268e-10 3.63048e-11 2.0819e-09 -2.90554 0.965183 -0.102902 3.20261e-10 3.63038e-11 2.08191e-09 -10.2786 0.731801 -0.0259123 3.20268e-10 3.63021e-11 2.08191e-09 -2.22167 -0.733487 0.20892 -2.03217e-16 0.0 -3.88251e-19 12.9006 -12.9163 15.6734 -0.189289 37.1626 1.23402 -25.6161 -33.7757 -37.1029 2.03217e-16 0.0 3.88251e-19 -8.33675 -15.6856 -20.62 0.293083 40.268 -1.11309 16.7322 -25.0982 30.1203
